<?xml version="1.0" encoding="UTF-8" standalone="no"?><!-- Generator: Gravit.io --><svg xmlns="http://www.w3.org/2000/svg" xmlns:xlink="http://www.w3.org/1999/xlink" style="isolation:isolate" viewBox="0 0 3200 3200" width="3200pt" height="3200pt"><defs><clipPath id="_clipPath_xjhr0gqN2XqDRbD2LViOf1ITOtQQ7nOB"><rect width="3200" height="3200"/></clipPath></defs><g clip-path="url(#_clipPath_xjhr0gqN2XqDRbD2LViOf1ITOtQQ7nOB)"><defs><linearGradient id="_lgradient_2" x1="0" y1="0.5" x2="1" y2="0.5"><stop offset="0%" style="stop-color:#FFFFFF"/><stop offset="100%" style="stop-color:#FFBFFF"/></linearGradient></defs><path d="M 1069.736 0 L 2130.264 0 C 2720.668 0 3200 479.332 3200 1069.736 L 3200 2130.264 C 3200 2720.668 2720.668 3200 2130.264 3200 L 1069.736 3200 C 479.332 3200 0 2720.668 0 2130.264 L 0 1069.736 C 0 479.332 479.332 0 1069.736 0 Z" style="stroke:none;fill:url(#_lgradient_2);stroke-miterlimit:10;"/><linearGradient id="_lgradient_3" x1="0" y1="0.5" x2="1" y2="0.5" gradientTransform="matrix(2331.692,0,0,1713.658,429.011,744.802)" gradientUnits="userSpaceOnUse"><stop offset="0%" stop-opacity="1" style="stop-color:rgb(255,0,255)"/><stop offset="100%" stop-opacity="1" style="stop-color:rgb(153,0,255)"/></linearGradient><path d=" M 1436.112 744.802 L 1123.493 1639.355 L 1063.284 1519.687 L 739.34 1519.687 C 709.764 1468.185 654.912 1436.424 595.522 1436.411 C 514.751 1436.398 445.624 1494.369 431.567 1573.908 C 417.51 1653.447 462.578 1731.601 538.461 1759.274 C 614.344 1786.947 699.144 1756.155 739.59 1686.24 L 960.522 1686.24 L 1150.142 2066.229 L 1420.456 1294.925 L 1752.645 2458.46 L 2069.427 1569.486 L 2125.389 1686.24 L 2450.083 1686.24 C 2487.766 1751.481 2564.569 1783.279 2637.341 1763.769 C 2710.113 1744.259 2760.71 1678.305 2760.703 1602.963 C 2760.71 1527.621 2710.113 1461.667 2637.341 1442.157 C 2564.569 1422.648 2487.766 1454.446 2450.083 1519.687 L 2230.151 1519.687 L 2046.693 1136.783 L 1770.216 1913.584 L 1436.112 744.802 Z " fill="url(#_lgradient_3)"/></g></svg>